<?xml version="1.0" standalone="no"?>
<!DOCTYPE svg PUBLIC "-//W3C//DTD SVG 20010904//EN"
 "http://www.w3.org/TR/2001/REC-SVG-20010904/DTD/svg10.dtd">
<svg version="1.0" xmlns="http://www.w3.org/2000/svg"
 width="338.000000pt" height="338.000000pt" viewBox="0 0 338.000000 338.000000"
 preserveAspectRatio="xMidYMid meet">
<metadata>
Created by potrace 1.11, written by Peter Selinger 2001-2013
</metadata>
<g transform="translate(0.000000,338.000000) scale(0.100000,-0.100000)"
fill="#000000" stroke="none">
<path d="M1530 3370 c-9 -4 -54 -13 -100 -19 -119 -15 -172 -25 -197 -39 -12
-7 -32 -12 -45 -12 -13 0 -28 -4 -33 -8 -6 -5 -32 -17 -60 -26 -100 -36 -379
-184 -405 -216 -3 -3 -32 -27 -65 -52 -165 -126 -356 -366 -447 -561 -43 -91
-73 -162 -88 -212 -7 -22 -17 -51 -23 -65 -12 -31 -24 -92 -37 -193 -6 -44
-15 -87 -20 -97 -13 -25 -13 -322 0 -352 6 -13 15 -59 21 -103 18 -143 21
-160 35 -180 8 -11 14 -32 14 -47 0 -15 4 -30 10 -33 5 -3 10 -13 10 -22 0 -8
7 -31 16 -51 42 -98 48 -111 88 -187 33 -62 126 -207 160 -250 64 -80 196
-213 261 -263 33 -25 62 -49 65 -52 25 -32 305 -180 405 -216 28 -9 55 -21 60
-24 6 -4 24 -10 40 -13 17 -2 44 -9 60 -15 17 -6 55 -15 85 -21 30 -5 87 -15
125 -22 94 -17 341 -23 374 -9 14 5 62 14 106 20 97 11 171 25 205 38 14 5 50
17 80 27 30 10 59 22 64 26 6 5 20 9 32 9 12 0 27 7 34 15 7 8 17 15 23 15 12
0 107 47 177 87 45 26 156 103 208 146 45 36 195 189 232 236 101 126 219 333
266 466 9 28 21 55 24 60 4 6 10 24 13 40 2 17 9 44 15 60 6 17 15 55 21 85 5
30 15 84 22 120 16 92 23 367 9 400 -6 15 -15 61 -20 101 -12 102 -24 160 -38
186 -7 12 -12 32 -12 45 0 13 -4 28 -8 33 -5 6 -17 33 -26 60 -28 78 -94 211
-155 310 -30 50 -57 92 -60 95 -3 3 -32 37 -64 77 -100 123 -252 257 -396 347
-67 42 -190 106 -205 106 -8 0 -19 7 -26 15 -7 8 -22 15 -34 15 -12 0 -26 4
-32 9 -5 4 -34 16 -64 26 -30 10 -66 22 -80 27 -34 13 -109 27 -209 39 -46 5
-92 14 -102 19 -22 12 -289 13 -309 0z m405 -212 c22 -5 60 -13 85 -18 66 -12
134 -32 144 -41 6 -5 18 -9 27 -9 10 0 30 -6 46 -14 15 -8 55 -27 88 -42 299
-139 570 -410 709 -709 15 -33 34 -73 42 -88 8 -16 14 -35 14 -43 0 -8 4 -22
9 -32 16 -28 41 -119 41 -145 0 -14 7 -44 15 -67 21 -61 21 -445 0 -516 -8
-27 -15 -59 -15 -72 0 -25 -26 -116 -41 -144 -5 -10 -9 -24 -9 -32 0 -8 -6
-27 -14 -43 -8 -15 -27 -55 -42 -88 -16 -33 -45 -88 -66 -123 -21 -34 -38 -66
-38 -71 0 -5 -4 -11 -8 -13 -4 -1 -30 -32 -57 -68 -133 -174 -343 -342 -540
-434 -33 -15 -73 -34 -88 -42 -16 -8 -36 -14 -46 -14 -9 0 -21 -4 -26 -9 -11
-9 -79 -29 -145 -41 -25 -5 -63 -13 -85 -19 -53 -15 -449 -15 -495 -1 -19 6
-55 15 -80 20 -79 15 -135 31 -145 41 -5 5 -17 9 -26 9 -10 0 -30 6 -46 14
-15 8 -44 22 -63 31 -19 8 -42 20 -50 25 -8 5 -22 11 -30 14 -8 3 -37 19 -65
36 -27 16 -57 33 -65 37 -8 4 -20 12 -26 17 -6 6 -22 18 -34 26 -79 52 -270
242 -314 313 -17 26 -34 47 -38 47 -4 0 -8 4 -8 10 0 5 -18 39 -40 75 -22 36
-40 70 -40 75 0 6 -11 28 -25 50 -14 22 -25 46 -25 53 0 7 -7 22 -15 33 -8 10
-15 27 -15 37 0 9 -4 25 -9 35 -16 28 -41 119 -41 145 0 14 -7 44 -15 67 -22
62 -21 434 1 534 36 163 84 307 124 376 5 8 19 35 32 60 12 25 33 59 45 76 13
17 23 36 23 41 0 6 7 17 16 24 9 8 28 32 42 54 32 51 226 245 277 277 22 14
46 33 54 42 7 9 19 16 26 16 7 0 18 6 24 14 6 7 39 28 74 45 34 17 69 36 77
40 32 19 128 58 185 75 33 10 68 22 77 27 10 5 31 9 47 9 16 0 42 5 58 12 57
23 440 28 528 6z"/>
<path d="M1644 2751 c-64 -39 -64 -34 -61 -592 2 -451 4 -507 19 -534 9 -16
144 -157 300 -313 303 -302 313 -309 381 -283 41 16 63 73 45 118 -8 20 -112
133 -272 292 l-258 259 -2 493 c-1 467 -2 496 -20 522 -16 23 -72 57 -95 57
-3 0 -20 -9 -37 -19z"/>
</g>
</svg>
